<svg width="30" height="35" viewBox="0 0 30 35" fill="none" xmlns="http://www.w3.org/2000/svg">
<path fill-rule="evenodd" clip-rule="evenodd" d="M0.991947 0C0.44411 0 0 0.439821 0 0.982366V17.921L3.34077 15.591L1.06068 14.2464C0.751287 14.064 0.588142 13.7096 0.65133 13.3572C0.714517 13.0048 0.990774 12.7285 1.34448 12.6638L13.7935 10.3884C14.0709 10.3377 14.3557 10.4252 14.556 10.6228C14.7564 10.8204 14.8471 11.103 14.7988 11.3796L12.5969 23.9788C12.5351 24.3326 12.2586 24.6107 11.9038 24.6758C11.5491 24.7409 11.1911 24.5794 11.0065 24.271L9.46053 21.6875L0.568719 34.9063C0.697085 34.9664 0.840552 35 0.991947 35H11.6414C21.4006 35 29.3121 27.165 29.3121 17.5C29.3121 7.83503 21.4007 0 11.6414 0H0.991947ZM0 32.6663L8.78657 19.604C8.95119 19.3593 9.23024 19.2158 9.52591 19.2235C9.82158 19.2313 10.0926 19.3894 10.244 19.6423L11.2968 21.4016L12.8875 12.2993L3.92127 13.9381L5.36959 14.7922C5.62158 14.9408 5.78055 15.2066 5.79173 15.4979C5.8029 15.7892 5.66475 16.0663 5.42488 16.2335L1.60338 18.8987L0 20.017V32.6663Z" fill="#71AA38"/>
</svg>
